<?xml version="1.0"?>
<svg xmlns="http://www.w3.org/2000/svg" xmlns:xlink="http://www.w3.org/1999/xlink" xmlns:svgjs="http://svgjs.com/svgjs" version="1.1" width="512" height="512" x="0" y="0" viewBox="0 0 512 512" style="enable-background:new 0 0 512 512" xml:space="preserve"><g><g xmlns="http://www.w3.org/2000/svg"><path d="m261.28 66.623c0-17.474-14.216-31.69-31.689-31.69s-31.689 14.216-31.689 31.69 14.216 31.689 31.689 31.689 31.689-14.216 31.689-31.689zm-48.379 0c0-9.203 7.487-16.69 16.689-16.69s16.689 7.487 16.689 16.69-7.487 16.689-16.689 16.689-16.689-7.487-16.689-16.689z" fill="#80756c" data-original="#000000" style=""/><path d="m88.999 264.729h281.183c4.143 0 7.5-3.358 7.5-7.5s-3.357-7.5-7.5-7.5h-281.183c-4.143 0-7.5 3.358-7.5 7.5s3.357 7.5 7.5 7.5z" fill="#80756c" data-original="#000000" style=""/><path d="m88.999 300.625h281.183c4.143 0 7.5-3.358 7.5-7.5s-3.357-7.5-7.5-7.5h-281.183c-4.143 0-7.5 3.358-7.5 7.5s3.357 7.5 7.5 7.5z" fill="#80756c" data-original="#000000" style=""/><path d="m88.999 336.521h281.183c4.143 0 7.5-3.358 7.5-7.5s-3.357-7.5-7.5-7.5h-281.183c-4.143 0-7.5 3.358-7.5 7.5s3.357 7.5 7.5 7.5z" fill="#80756c" data-original="#000000" style=""/><path d="m288.683 357.417h-199.684c-4.143 0-7.5 3.358-7.5 7.5s3.357 7.5 7.5 7.5h199.685c4.143 0 7.5-3.358 7.5-7.5s-3.358-7.5-7.501-7.5z" fill="#80756c" data-original="#000000" style=""/><path d="m110.825 226.382c3.869 1.473 8.204-.468 9.679-4.339l2.824-7.416h19.735l2.79 7.394c1.133 3.003 3.987 4.854 7.018 4.854.88 0 1.775-.156 2.647-.485 3.875-1.462 5.831-5.79 4.368-9.665l-18.557-49.172c-.025-.067-.051-.134-.078-.2-1.335-3.252-4.468-5.353-7.983-5.353-.003 0-.006 0-.009 0-3.519.003-6.651 2.111-7.981 5.369-.021.055-.044.109-.064.165l-18.728 49.17c-1.475 3.87.469 8.204 4.339 9.678zm26.577-26.755h-8.361l4.2-11.026z" fill="#80756c" data-original="#000000" style=""/><path d="m291.7 226.873c4.143 0 7.5-3.358 7.5-7.5v-49.872c0-4.142-3.357-7.5-7.5-7.5s-7.5 3.358-7.5 7.5v49.872c0 4.142 3.357 7.5 7.5 7.5z" fill="#80756c" data-original="#000000" style=""/><path d="m226.359 219.4c.007 1.989.805 3.895 2.216 5.296 1.405 1.395 3.305 2.177 5.284 2.177h.028c.428-.001 10.508-.041 14.54-.111 15.7-.274 27.096-13.869 27.096-32.325 0-19.401-11.107-32.436-27.64-32.436h-14.125c-1.991 0-3.901.792-5.309 2.202-1.406 1.41-2.195 3.321-2.191 5.312 0 .001.101 49.885.101 49.885zm21.524-42.399c11.729 0 12.64 13.346 12.64 17.436 0 8.517-3.821 17.178-12.357 17.327-1.596.028-4.243.051-6.832.069-.018-5.793-.052-28.796-.062-34.832z" fill="#80756c" data-original="#000000" style=""/><path d="m177.937 223.063c3.946 2.521 8.395 3.803 13.221 3.809h.042c4.146 0 8.042-.904 11.581-2.687 8.722-4.393 13.525-11.639 13.525-20.404v-34.281c0-4.142-3.357-7.5-7.5-7.5s-7.5 3.358-7.5 7.5v34.281c0 2.152-.627 4.667-5.273 7.007-1.446.729-3.027 1.083-4.834 1.083-.007 0-.014 0-.021 0-1.953-.002-3.642-.477-5.164-1.449-3.633-2.321-4.362-4.248-4.362-6.605v-34.317c0-4.142-3.357-7.5-7.5-7.5s-7.5 3.358-7.5 7.5v34.317c0 7.987 3.797 14.462 11.285 19.246z" fill="#80756c" data-original="#000000" style=""/><path d="m318.138 177.001h6.216v42.372c0 4.142 3.357 7.5 7.5 7.5s7.5-3.358 7.5-7.5v-42.372h6.326c4.143 0 7.5-3.358 7.5-7.5s-3.357-7.5-7.5-7.5h-27.542c-4.143 0-7.5 3.358-7.5 7.5s3.358 7.5 7.5 7.5z" fill="#80756c" data-original="#000000" style=""/><path d="m475.967 469.14c-.938-4.035-4.979-6.544-9.005-5.604-4.034.939-6.544 4.971-5.604 9.005.348 1.495.524 3.029.524 4.56 0 5.322-2.068 10.321-5.82 14.074-7.762 7.754-20.39 7.752-28.146.002l-23.021-23.02c-1.407-1.407-3.314-2.197-5.304-2.197s-3.896.79-5.304 2.197l-23.014 23.015c-3.767 3.759-8.764 5.829-14.072 5.829s-10.307-2.07-14.066-5.823c-7.76-7.759-7.76-20.384 0-28.144l23.02-23.02c2.929-2.929 2.929-7.678 0-10.606l-23.02-23.02c-3.762-3.762-5.834-8.758-5.834-14.067 0-5.315 2.072-10.314 5.833-14.077 7.758-7.756 20.38-7.756 28.134 0l23.02 23.02c1.407 1.407 3.314 2.197 5.304 2.197s3.896-.79 5.304-2.197l23.021-23.02c3.755-3.755 8.75-5.823 14.066-5.823 5.322 0 10.321 2.068 14.076 5.823 7.759 7.759 7.759 20.385 0 28.144l-23.021 23.02c-1.406 1.406-2.196 3.314-2.196 5.303s.79 3.897 2.196 5.303l12.42 12.42c2.93 2.929 7.678 2.929 10.607 0s2.929-7.678 0-10.606l-7.117-7.117 17.718-17.717c13.606-13.607 13.606-35.749-.001-49.357-6.589-6.588-15.354-10.216-24.683-10.216-6.416 0-12.567 1.719-17.926 4.938v-239.939c0-39.789-32.37-72.16-72.159-72.16h-13.794c-8.912-8.344-20.467-12.93-32.731-12.93h-15.947c-11.132-22.839-34.09-37.33-59.833-37.33-6.064 0-12.097.822-17.93 2.444-3.99 1.11-6.326 5.244-5.216 9.235 1.109 3.991 5.239 6.326 9.235 5.217 4.523-1.258 9.203-1.896 13.91-1.896 21.293 0 40.125 12.794 47.979 32.595 1.134 2.858 3.896 4.735 6.972 4.735h20.83c8.799 0 17.071 3.428 23.297 9.653 6.225 6.225 9.653 14.502 9.653 23.307 0 18.169-14.781 32.95-32.95 32.95h-151.56c-8.805 0-17.081-3.428-23.307-9.654-6.225-6.225-9.653-14.498-9.653-23.296 0-18.174 14.786-32.96 32.96-32.96h20.82c3.075 0 5.839-1.878 6.973-4.737 2.606-6.579 6.48-12.457 11.512-17.47 2.934-2.924 2.942-7.673.019-10.607-2.924-2.935-7.673-2.942-10.606-.019-5.265 5.246-9.549 11.229-12.777 17.833h-15.939c-12.633 0-24.134 4.918-32.709 12.93h-13.816c-39.795 0-72.17 32.371-72.17 72.16v291.54c0 39.789 32.375 72.16 72.17 72.16h216.198c1.56 5.87 4.636 11.255 9.048 15.668 6.598 6.585 15.358 10.212 24.669 10.212 9.31 0 18.07-3.626 24.674-10.217l17.716-17.717 17.72 17.719c13.605 13.593 35.745 13.595 49.354-.002 6.588-6.589 10.216-15.354 10.216-24.683-.002-2.674-.309-5.352-.917-7.96zm-425.849-55.18v-291.54c0-31.518 25.646-57.16 57.17-57.16h2.964c-2.816 6.1-4.4 12.882-4.4 20.03 0 12.805 4.989 24.845 14.047 33.903s21.102 14.047 33.913 14.047h151.561c26.439 0 47.95-21.51 47.95-47.95 0-7.031-1.512-13.828-4.365-20.03h2.941c31.518 0 57.159 25.642 57.159 57.16v253.469l-9.465 9.465-17.717-17.717c-13.604-13.604-35.741-13.604-49.347 0-6.595 6.596-10.227 15.361-10.227 24.683 0 9.315 3.632 18.078 10.227 24.673l17.717 17.717-17.717 17.717c-5.157 5.158-8.492 11.649-9.703 18.693h-215.538c-31.524 0-57.17-25.642-57.17-57.16z" fill="#80756c" data-original="#000000" style=""/></g></g></svg>
