<?xml version="1.0"?>
<svg xmlns="http://www.w3.org/2000/svg" xmlns:xlink="http://www.w3.org/1999/xlink" xmlns:svgjs="http://svgjs.com/svgjs" version="1.1" width="512" height="512" x="0" y="0" viewBox="0 0 64 64" style="enable-background:new 0 0 512 512" xml:space="preserve"><g><g xmlns="http://www.w3.org/2000/svg"><path d="m27 16.99h-2c0 1.654 1.346 3 3 3s3-1.346 3-3h-2c0 .551-.448 1-1 1s-1-.449-1-1z" fill="#80756c" data-original="#000000" style=""/><path d="m60 41h-7v-2c0-1.103-.897-2-2-2v-20h4c1.103 0 2-.897 2-2v-8c0-1.103-.897-2-2-2h-14c-1.103 0-2 .897-2 2v8c0 .618.288 1.165.73 1.532-.463.648-.73 1.43-.73 2.264 0 1.044.406 2.025 1.145 2.762l.855.856v12.529l-16-.889v-1.061l1.994.002h.007c1.601 0 3.106-.623 4.239-1.755 1.135-1.134 1.76-2.641 1.76-4.245v-3.387l2-1v-.618c0-3.274-1.753-6.959-2.604-8.557 1.586-1.283 2.604-3.241 2.604-5.433 0-3.86-3.14-7.001-7-7.001l-4.67-.001c-.002 0-.003 0-.005 0-4.359 0-8.459 1.698-11.542 4.78-3.084 3.083-4.783 7.183-4.783 11.545 0 5.114 2.443 10 6.537 13.069l1.463 1.097v2.628l-4.934.617c-1.586.198-3.128.772-4.458 1.659-2.885 1.924-4.608 5.144-4.608 8.611v9.996c0 4.411 3.585 8 7.992 8h23.012c.819 0 1.581-.218 2.263-.57.501.359 1.095.57 1.733.57h24c1.654 0 3-1.346 3-3v-16c0-1.654-1.346-3-3-3zm-9.464 8.735c-.367-.445-.915-.735-1.536-.735h-2c-.621 0-1.169.29-1.536.735l-8.573-6.735h22.217zm-1.535 5.265h-2.001v-4h2zm-16.373-1.974c-.688-1.254-1.986-2.026-3.424-2.026-1.044 0-2.025.406-2.763 1.144l-.855.856-4.586-.003v-1.276l6-2v-6.824l4-1.143v-5.364l10.563.587 1.511 1.511c-.043.165-.074.334-.074.512v2h-7c-1.654 0-3 1.346-3 3v9.096c-.124-.022-.245-.057-.372-.07zm-21.628-16.393 2.119-.265c.135 1.6.398 3.175.799 4.712l-2.918-.834zm4.724-.591 2.254 1.69-2.535 1.014c-.16-.865-.267-1.743-.339-2.627zm4.056 6.958h.439l1.085 4.34c-.406.678-.834 1.346-1.304 1.99-.47-.644-.898-1.312-1.304-1.991zm2.92 1.678-.64-2.56.924-1.847 1.136.454c-.363 1.355-.843 2.674-1.42 3.953zm-1.58-5.153-.738 1.475h-.764l-.738-1.476 1.12-.447zm-4.103.745.924 1.847-.64 2.561c-.577-1.279-1.054-2.599-1.416-3.955zm7.983 4.085v3.925l-2.409.803c.962-1.502 1.755-3.089 2.409-4.728zm1.084-3.276c.417-1.601.683-3.246.812-4.916l2.104.116v3.966zm-1.775-5.06.593.033c-.071.908-.177 1.809-.341 2.696l-2.537-1.015zm-9.309 8.335c.654 1.64 1.447 3.227 2.408 4.728l-2.408-.803zm30-3.354v-2h6v2zm0-4c-.178 0-.347.031-.511.075l-1.489-1.489v-12.586h6v14zm4-16h-6.586l-.856-.856c-.36-.36-.558-.838-.558-1.348 0-.727.403-1.38 1.054-1.705l.182-.091h6.764zm-4-6v-8h6v8zm10.001 0h-2.001v-8h2zm-14.001-8h2v8h-2zm-8.023 14.383-1.977.989v4.624.005h-1.763c-.998 0-1.896-.555-2.342-1.447l-1.789.895c.788 1.573 2.371 2.551 4.13 2.551h1.208c-.172.295-.369.577-.617.825-.756.754-1.759 1.17-2.827 1.17-.001 0-.003 0-.004 0l-5.995-.005-.002 2 2.001.002v1.509l-3 2.249-3-2.25v-10.01l-3.066-2.3c-.585-.439-.934-1.137-.934-1.867 0-1.287 1.047-2.333 2.333-2.333h1.667v-1.838c0-.946.393-1.83 1.061-2.46.039.042.067.091.108.132.754.757 1.758 1.173 2.826 1.173h.004l5.936-.006c.022 0 .042.006.064.006h.004v-.006l.997-.001c.947 0 1.849-.191 2.673-.532.726 1.379 2.107 4.303 2.304 6.925zm-18.241 7.409c-3.591-2.694-5.736-6.982-5.736-11.469 0-3.827 1.49-7.425 4.197-10.131 2.706-2.705 6.303-4.194 10.128-4.194h.005l4.67.001c2.757 0 5 2.244 5 5.001 0 2.751-2.243 4.99-5.001 4.99l-1.064.001c-.509-.016-.987-.217-1.349-.579-.378-.377-.586-.879-.586-1.413 0-1.103.896-1.999 1.998-1.999v-2c-2.204 0-3.998 1.794-3.998 3.999 0 .715.202 1.394.552 1.996l-2.555.003c-.001 0-.001 0-.002 0-.533 0-1.033-.208-1.409-.585-.378-.38-.586-.888-.586-1.429 0-1.094.89-1.984 1.983-1.984h.017l-.017-2c-2.196 0-3.983 1.787-3.983 3.984 0 .308.043.608.11.901-1.277.979-2.063 2.483-2.108 4.118-2.235.169-4.002 2.042-4.002 4.32 0 1.356.647 2.652 1.733 3.467l2.267 1.7v3.5zm-11.736 26.208v-9.996c0-2.798 1.39-5.395 3.718-6.948.699-.466 1.475-.812 2.282-1.05v4.748l4 1.143v6.824l6 2v1.275l-8-.005v-7.236l-1.105-2.211-1.789.895.894 1.787v7.351l-1.709 1.717 1.418 1.411 1.706-1.715 14.585.01v6h-16.008c-3.304 0-5.992-2.691-5.992-6zm24 6v-6.586l.855-.856c.36-.36.839-.558 1.349-.558.727 0 1.38.404 1.705 1.053l.472.947h.738.001c.77 0 1.492.299 2.036.843s.844 1.267.844 2.037v.101c0 1.665-1.344 3.02-2.996 3.02zm33 0h-24c-.009 0-.017-.006-.026-.006.635-.842 1.026-1.878 1.026-3.014v-.1c0-1.304-.508-2.529-1.43-3.451-.178-.178-.371-.334-.57-.481v-9.89l10 7.857v3.085c0 1.103.897 2 2 2h2c1.103 0 2-.897 2-2v-3.085l10-7.857v15.942c0 .551-.448 1-1 1z" fill="#80756c" data-original="#000000" style=""/><path d="m57 57h2v2h-2z" fill="#80756c" data-original="#000000" style=""/><path d="m53 57h2v2h-2z" fill="#80756c" data-original="#000000" style=""/></g></g></svg>
