<?xml version="1.0"?>
<svg xmlns="http://www.w3.org/2000/svg" xmlns:xlink="http://www.w3.org/1999/xlink" xmlns:svgjs="http://svgjs.com/svgjs" version="1.1" width="512" height="512" x="0" y="0" viewBox="0 0 512 512" style="enable-background:new 0 0 512 512" xml:space="preserve" class=""><g>
<g xmlns="http://www.w3.org/2000/svg">
	<g>
		<g>
			<path d="M486.4,38.4H25.6C11.468,38.415,0.015,49.868,0,64v307.2c0.015,14.132,11.468,25.585,25.6,25.6h86.043     c7.065,43.697,67.917,76.8,144.357,76.8s137.293-33.103,144.357-76.8H486.4c14.132-0.015,25.585-11.468,25.6-25.6V64     C511.985,49.868,500.532,38.415,486.4,38.4z M76.8,379.733H25.6c-4.71-0.006-8.527-3.823-8.533-8.533V64     c0.006-4.71,3.823-8.527,8.533-8.533h51.2V379.733z M256,456.533c-69.383,0-128-31.262-128-68.267S186.617,320,256,320     s128,31.262,128,68.267S325.383,456.533,256,456.533z M186.025,226.133c0.085-49.731,35.86-92.224,84.849-100.784     c-4.519,3.054-8.736,6.533-12.594,10.388c-33.264,33.335-33.235,87.315,0.065,120.614c33.3,33.299,87.28,33.326,120.614,0.061     c3.774-3.782,7.185-7.909,10.19-12.326c-5.658,31.063-25.212,57.833-53.083,72.671c-25.632-9.416-52.76-14.1-80.066-13.824     c-10.869,0.009-21.726,0.722-32.503,2.135C199.724,285.768,185.951,256.754,186.025,226.133z M494.933,371.2     c-0.006,4.71-3.823,8.527-8.533,8.533h-86.043c-3.497-21.629-20.265-40.595-45.491-54.303     c33.012-22.29,52.863-59.465,53.025-99.297c0.017-10.706-1.439-21.363-4.329-31.671c-0.041-0.146-0.15-0.245-0.198-0.387     c-0.218-0.579-0.501-1.131-0.843-1.647c-0.958-1.866-2.695-3.21-4.741-3.668c-0.621-0.211-1.265-0.348-1.918-0.407     c-0.144-0.009-0.266-0.085-0.412-0.087h-0.079c-0.334,0.045-0.664,0.112-0.99,0.198c-0.451-0.004-0.902,0.03-1.348,0.102     c-0.203,0.057-0.345,0.207-0.541,0.278c-0.443,0.18-0.87,0.399-1.275,0.654c-1.956,0.936-3.382,2.71-3.876,4.821     c-0.22,0.64-0.36,1.306-0.416,1.98c-0.009,0.147-0.087,0.271-0.089,0.421c-0.332,37.544-30.92,67.773-68.465,67.661     s-67.953-30.521-68.062-68.066c-0.109-37.545,30.121-68.131,67.665-68.461c0.276-0.043,0.549-0.101,0.819-0.173     c0.17-0.018,0.321-0.076,0.489-0.104c0.934-0.141,1.837-0.439,2.671-0.882c0.102-0.056,0.183-0.134,0.283-0.195     c0.827-0.488,1.564-1.114,2.178-1.852c0.117-0.141,0.193-0.307,0.301-0.456c0.533-0.723,0.945-1.529,1.219-2.384     c0.033-0.103,0.114-0.174,0.143-0.28c0.072-0.258,0.01-0.509,0.058-0.768c0.146-0.496,0.243-1.005,0.292-1.52     c-0.002-0.219-0.112-0.403-0.13-0.618c-0.059-0.55-0.173-1.092-0.341-1.619c-0.466-1.454-1.248-2.787-2.291-3.903     c-0.604-0.548-1.286-1.003-2.023-1.352c-0.229-0.114-0.432-0.252-0.672-0.345c-0.255-0.149-0.518-0.284-0.789-0.405     c-10.337-2.894-21.023-4.352-31.757-4.333c-65.949,0.074-119.393,53.518-119.467,119.467     c-0.07,30.875,11.945,60.552,33.476,82.682c-49.798,11.333-85.486,38.105-90.791,70.918H93.867V55.467H486.4     c4.71,0.006,8.527,3.823,8.533,8.533V371.2z" fill="#80756c" data-original="#000000" style="" class=""/>
			<path d="M221.867,345.6h-25.6c-4.713,0-8.533,3.82-8.533,8.533V422.4c0,4.713,3.82,8.533,8.533,8.533s8.533-3.82,8.533-8.533     v-25.6h17.067c14.138,0,25.6-11.461,25.6-25.6S236.005,345.6,221.867,345.6z M221.867,379.733H204.8v-17.067h17.067     c4.713,0,8.533,3.82,8.533,8.533S226.58,379.733,221.867,379.733z" fill="#80756c" data-original="#000000" style="" class=""/>
			<path d="M315.682,353.19c-0.25-2.249-1.384-4.307-3.153-5.719c-1.767-1.414-4.023-2.067-6.272-1.817     c-2.249,0.25-4.306,1.383-5.72,3.151L281.6,372.476v-18.343c0-4.713-3.821-8.533-8.533-8.533c-4.713,0-8.533,3.82-8.533,8.533     V422.4c0,4.713,3.821,8.533,8.533,8.533c4.713,0,8.533-3.82,8.533-8.533v-19.913l18.775,25.033     c2.828,3.769,8.177,4.532,11.946,1.704c3.769-2.828,4.532-8.177,1.704-11.946l-22.459-29.946l22.297-27.871     C315.277,357.696,315.932,355.44,315.682,353.19z" fill="#80756c" data-original="#000000" style="" class=""/>
			<path d="M419.358,107.221L419.358,107.221l-20.35-2.954l-9.1-18.442c-1.599-2.708-4.51-4.369-7.654-4.369     c-3.145,0-6.055,1.661-7.654,4.369l-9.1,18.442l-20.35,2.954c-3.216,0.466-5.888,2.718-6.891,5.809     c-1.004,3.09-0.166,6.483,2.162,8.75l14.725,14.354l-3.475,20.271c-0.549,3.201,0.767,6.435,3.394,8.345     c2.627,1.909,6.11,2.162,8.985,0.651l18.204-9.571l18.204,9.571c2.875,1.511,6.359,1.259,8.987-0.65s3.945-5.144,3.396-8.346     l-3.479-20.271l14.729-14.358c2.325-2.268,3.162-5.659,2.157-8.748C425.244,109.938,422.573,107.687,419.358,107.221z      M394.238,127.046c-2.008,1.961-2.926,4.783-2.454,7.55l1.313,7.65l-6.871-3.612c-2.486-1.305-5.455-1.305-7.942,0l-6.871,3.612     l1.313-7.65c0.477-2.769-0.441-5.594-2.454-7.554l-5.554-5.417l7.675-1.112c2.781-0.405,5.185-2.151,6.429-4.671l3.433-6.958     l3.433,6.958c1.245,2.519,3.648,4.266,6.429,4.671l7.679,1.112L394.238,127.046z" fill="#80756c" data-original="#000000" style="" class=""/>
		</g>
	</g>
</g>
<g xmlns="http://www.w3.org/2000/svg">
</g>
<g xmlns="http://www.w3.org/2000/svg">
</g>
<g xmlns="http://www.w3.org/2000/svg">
</g>
<g xmlns="http://www.w3.org/2000/svg">
</g>
<g xmlns="http://www.w3.org/2000/svg">
</g>
<g xmlns="http://www.w3.org/2000/svg">
</g>
<g xmlns="http://www.w3.org/2000/svg">
</g>
<g xmlns="http://www.w3.org/2000/svg">
</g>
<g xmlns="http://www.w3.org/2000/svg">
</g>
<g xmlns="http://www.w3.org/2000/svg">
</g>
<g xmlns="http://www.w3.org/2000/svg">
</g>
<g xmlns="http://www.w3.org/2000/svg">
</g>
<g xmlns="http://www.w3.org/2000/svg">
</g>
<g xmlns="http://www.w3.org/2000/svg">
</g>
<g xmlns="http://www.w3.org/2000/svg">
</g>
</g></svg>
